<mxfile host="Electron" agent="Mozilla/5.0 (Windows NT 10.0; Win64; x64) AppleWebKit/537.36 (KHTML, like Gecko) draw.io/24.7.8 Chrome/128.0.6613.36 Electron/32.0.1 Safari/537.36" version="24.7.8">
  <diagram name="PÃ¡gina-1" id="VeLKGp-hcn48qWKlANh8">
    <mxGraphModel dx="794" dy="828" grid="1" gridSize="10" guides="1" tooltips="1" connect="1" arrows="1" fold="1" page="1" pageScale="1" pageWidth="827" pageHeight="1169" math="0" shadow="0">
      <root>
        <mxCell id="0" />
        <mxCell id="1" parent="0" />
        <mxCell id="mnoYVhQ4aOoopWuf_P9z-1" value="Gimnasio" style="swimlane;fontStyle=0;childLayout=stackLayout;horizontal=1;startSize=26;fillColor=none;horizontalStack=0;resizeParent=1;resizeParentMax=0;resizeLast=0;collapsible=1;marginBottom=0;whiteSpace=wrap;html=1;" vertex="1" parent="1">
          <mxGeometry x="334" y="23" width="140" height="52" as="geometry" />
        </mxCell>
        <mxCell id="mnoYVhQ4aOoopWuf_P9z-2" value="Usuario" style="swimlane;fontStyle=1;align=center;verticalAlign=top;childLayout=stackLayout;horizontal=1;startSize=26;horizontalStack=0;resizeParent=1;resizeParentMax=0;resizeLast=0;collapsible=1;marginBottom=0;whiteSpace=wrap;html=1;" vertex="1" parent="1">
          <mxGeometry x="20" y="150" width="160" height="94" as="geometry" />
        </mxCell>
        <mxCell id="mnoYVhQ4aOoopWuf_P9z-3" value="- nombre: String&lt;div&gt;- cedula: String&lt;/div&gt;" style="text;strokeColor=none;fillColor=none;align=left;verticalAlign=top;spacingLeft=4;spacingRight=4;overflow=hidden;rotatable=0;points=[[0,0.5],[1,0.5]];portConstraint=eastwest;whiteSpace=wrap;html=1;" vertex="1" parent="mnoYVhQ4aOoopWuf_P9z-2">
          <mxGeometry y="26" width="160" height="34" as="geometry" />
        </mxCell>
        <mxCell id="mnoYVhQ4aOoopWuf_P9z-4" value="" style="line;strokeWidth=1;fillColor=none;align=left;verticalAlign=middle;spacingTop=-1;spacingLeft=3;spacingRight=3;rotatable=0;labelPosition=right;points=[];portConstraint=eastwest;strokeColor=inherit;" vertex="1" parent="mnoYVhQ4aOoopWuf_P9z-2">
          <mxGeometry y="60" width="160" height="8" as="geometry" />
        </mxCell>
        <mxCell id="mnoYVhQ4aOoopWuf_P9z-5" value="+ getters &amp;amp; setters" style="text;strokeColor=none;fillColor=none;align=left;verticalAlign=top;spacingLeft=4;spacingRight=4;overflow=hidden;rotatable=0;points=[[0,0.5],[1,0.5]];portConstraint=eastwest;whiteSpace=wrap;html=1;" vertex="1" parent="mnoYVhQ4aOoopWuf_P9z-2">
          <mxGeometry y="68" width="160" height="26" as="geometry" />
        </mxCell>
        <mxCell id="mnoYVhQ4aOoopWuf_P9z-6" value="Clase" style="swimlane;fontStyle=1;align=center;verticalAlign=top;childLayout=stackLayout;horizontal=1;startSize=26;horizontalStack=0;resizeParent=1;resizeParentMax=0;resizeLast=0;collapsible=1;marginBottom=0;whiteSpace=wrap;html=1;" vertex="1" parent="1">
          <mxGeometry x="218" y="150" width="160" height="234" as="geometry" />
        </mxCell>
        <mxCell id="mnoYVhQ4aOoopWuf_P9z-7" value="- CAPACIDADMAXIMA: final int&lt;div&gt;- id: String&lt;/div&gt;&lt;div&gt;- nombre:String&lt;/div&gt;&lt;div&gt;- horario: ArrayList &amp;lt;Sesion&amp;gt;&lt;/div&gt;&lt;div&gt;- capacidadPlazas: int&lt;/div&gt;&lt;div&gt;-fechaInicio: localDate&lt;/div&gt;&lt;div&gt;- disponible: boolean&lt;/div&gt;&lt;div&gt;- tipoClase: TIPOCLASE&lt;/div&gt;&lt;div&gt;- instructor: instructor&lt;/div&gt;" style="text;strokeColor=none;fillColor=none;align=left;verticalAlign=top;spacingLeft=4;spacingRight=4;overflow=hidden;rotatable=0;points=[[0,0.5],[1,0.5]];portConstraint=eastwest;whiteSpace=wrap;html=1;" vertex="1" parent="mnoYVhQ4aOoopWuf_P9z-6">
          <mxGeometry y="26" width="160" height="174" as="geometry" />
        </mxCell>
        <mxCell id="mnoYVhQ4aOoopWuf_P9z-8" value="" style="line;strokeWidth=1;fillColor=none;align=left;verticalAlign=middle;spacingTop=-1;spacingLeft=3;spacingRight=3;rotatable=0;labelPosition=right;points=[];portConstraint=eastwest;strokeColor=inherit;" vertex="1" parent="mnoYVhQ4aOoopWuf_P9z-6">
          <mxGeometry y="200" width="160" height="8" as="geometry" />
        </mxCell>
        <mxCell id="mnoYVhQ4aOoopWuf_P9z-9" value="+ busquedaClase()" style="text;strokeColor=none;fillColor=none;align=left;verticalAlign=top;spacingLeft=4;spacingRight=4;overflow=hidden;rotatable=0;points=[[0,0.5],[1,0.5]];portConstraint=eastwest;whiteSpace=wrap;html=1;" vertex="1" parent="mnoYVhQ4aOoopWuf_P9z-6">
          <mxGeometry y="208" width="160" height="26" as="geometry" />
        </mxCell>
        <mxCell id="mnoYVhQ4aOoopWuf_P9z-10" value="ReservaClase" style="swimlane;fontStyle=1;align=center;verticalAlign=top;childLayout=stackLayout;horizontal=1;startSize=26;horizontalStack=0;resizeParent=1;resizeParentMax=0;resizeLast=0;collapsible=1;marginBottom=0;whiteSpace=wrap;html=1;" vertex="1" parent="1">
          <mxGeometry x="418" y="151" width="160" height="140" as="geometry" />
        </mxCell>
        <mxCell id="mnoYVhQ4aOoopWuf_P9z-11" value="- clase: Clase&lt;div&gt;- cliente: Cliente&lt;/div&gt;&lt;div&gt;- fechaReserva: localDate&lt;/div&gt;&lt;div&gt;&lt;br&gt;&lt;/div&gt;" style="text;strokeColor=none;fillColor=none;align=left;verticalAlign=top;spacingLeft=4;spacingRight=4;overflow=hidden;rotatable=0;points=[[0,0.5],[1,0.5]];portConstraint=eastwest;whiteSpace=wrap;html=1;" vertex="1" parent="mnoYVhQ4aOoopWuf_P9z-10">
          <mxGeometry y="26" width="160" height="64" as="geometry" />
        </mxCell>
        <mxCell id="mnoYVhQ4aOoopWuf_P9z-12" value="" style="line;strokeWidth=1;fillColor=none;align=left;verticalAlign=middle;spacingTop=-1;spacingLeft=3;spacingRight=3;rotatable=0;labelPosition=right;points=[];portConstraint=eastwest;strokeColor=inherit;" vertex="1" parent="mnoYVhQ4aOoopWuf_P9z-10">
          <mxGeometry y="90" width="160" height="8" as="geometry" />
        </mxCell>
        <mxCell id="mnoYVhQ4aOoopWuf_P9z-13" value="+ reservarClase()&lt;div&gt;+ cancelarReserva()&lt;/div&gt;" style="text;strokeColor=none;fillColor=none;align=left;verticalAlign=top;spacingLeft=4;spacingRight=4;overflow=hidden;rotatable=0;points=[[0,0.5],[1,0.5]];portConstraint=eastwest;whiteSpace=wrap;html=1;" vertex="1" parent="mnoYVhQ4aOoopWuf_P9z-10">
          <mxGeometry y="98" width="160" height="42" as="geometry" />
        </mxCell>
        <mxCell id="mnoYVhQ4aOoopWuf_P9z-14" value="RegistroEntrenamiento" style="swimlane;fontStyle=1;align=center;verticalAlign=top;childLayout=stackLayout;horizontal=1;startSize=26;horizontalStack=0;resizeParent=1;resizeParentMax=0;resizeLast=0;collapsible=1;marginBottom=0;whiteSpace=wrap;html=1;" vertex="1" parent="1">
          <mxGeometry x="623" y="151" width="160" height="174" as="geometry" />
        </mxCell>
        <mxCell id="mnoYVhQ4aOoopWuf_P9z-15" value="- cliente: Cliente&lt;div&gt;- tipoEntrenamiento: TIPOENTRENAMIENTO&lt;/div&gt;&lt;div&gt;- duracion: int&lt;/div&gt;&lt;div&gt;- caloriasQuemadas: double&lt;/div&gt;&lt;div&gt;- fechaEntrenamiento: localDate&lt;/div&gt;" style="text;strokeColor=none;fillColor=none;align=left;verticalAlign=top;spacingLeft=4;spacingRight=4;overflow=hidden;rotatable=0;points=[[0,0.5],[1,0.5]];portConstraint=eastwest;whiteSpace=wrap;html=1;" vertex="1" parent="mnoYVhQ4aOoopWuf_P9z-14">
          <mxGeometry y="26" width="160" height="114" as="geometry" />
        </mxCell>
        <mxCell id="mnoYVhQ4aOoopWuf_P9z-16" value="" style="line;strokeWidth=1;fillColor=none;align=left;verticalAlign=middle;spacingTop=-1;spacingLeft=3;spacingRight=3;rotatable=0;labelPosition=right;points=[];portConstraint=eastwest;strokeColor=inherit;" vertex="1" parent="mnoYVhQ4aOoopWuf_P9z-14">
          <mxGeometry y="140" width="160" height="8" as="geometry" />
        </mxCell>
        <mxCell id="mnoYVhQ4aOoopWuf_P9z-17" value="+ historialEntrenamientos" style="text;strokeColor=none;fillColor=none;align=left;verticalAlign=top;spacingLeft=4;spacingRight=4;overflow=hidden;rotatable=0;points=[[0,0.5],[1,0.5]];portConstraint=eastwest;whiteSpace=wrap;html=1;" vertex="1" parent="mnoYVhQ4aOoopWuf_P9z-14">
          <mxGeometry y="148" width="160" height="26" as="geometry" />
        </mxCell>
        <mxCell id="mnoYVhQ4aOoopWuf_P9z-18" value="" style="endArrow=open;html=1;endSize=12;startArrow=diamondThin;startSize=14;startFill=1;edgeStyle=orthogonalEdgeStyle;align=left;verticalAlign=bottom;rounded=0;entryX=0.554;entryY=-0.037;entryDx=0;entryDy=0;entryPerimeter=0;exitX=-0.005;exitY=0.113;exitDx=0;exitDy=0;exitPerimeter=0;" edge="1" parent="1" source="mnoYVhQ4aOoopWuf_P9z-1" target="mnoYVhQ4aOoopWuf_P9z-2">
          <mxGeometry x="-1" y="3" relative="1" as="geometry">
            <mxPoint x="200" y="30" as="sourcePoint" />
            <mxPoint x="111.04000000000008" y="87.36800000000005" as="targetPoint" />
          </mxGeometry>
        </mxCell>
        <mxCell id="mnoYVhQ4aOoopWuf_P9z-19" value="" style="endArrow=open;html=1;endSize=12;startArrow=diamondThin;startSize=14;startFill=1;edgeStyle=orthogonalEdgeStyle;align=left;verticalAlign=bottom;rounded=0;entryX=0.5;entryY=0;entryDx=0;entryDy=0;exitX=0;exitY=0.75;exitDx=0;exitDy=0;" edge="1" parent="1" source="mnoYVhQ4aOoopWuf_P9z-1" target="mnoYVhQ4aOoopWuf_P9z-6">
          <mxGeometry x="-1" y="3" relative="1" as="geometry">
            <mxPoint x="290" y="62" as="sourcePoint" />
            <mxPoint x="180" y="228" as="targetPoint" />
          </mxGeometry>
        </mxCell>
        <mxCell id="mnoYVhQ4aOoopWuf_P9z-20" value="" style="endArrow=open;html=1;endSize=12;startArrow=diamondThin;startSize=14;startFill=1;edgeStyle=orthogonalEdgeStyle;align=left;verticalAlign=bottom;rounded=0;entryX=0.5;entryY=0;entryDx=0;entryDy=0;exitX=1;exitY=0.75;exitDx=0;exitDy=0;" edge="1" parent="1" source="mnoYVhQ4aOoopWuf_P9z-1">
          <mxGeometry x="-1" y="3" relative="1" as="geometry">
            <mxPoint x="536" y="63" as="sourcePoint" />
            <mxPoint x="500" y="151" as="targetPoint" />
          </mxGeometry>
        </mxCell>
        <mxCell id="mnoYVhQ4aOoopWuf_P9z-21" value="" style="endArrow=open;html=1;endSize=12;startArrow=diamondThin;startSize=14;startFill=1;edgeStyle=orthogonalEdgeStyle;align=left;verticalAlign=bottom;rounded=0;entryX=0.5;entryY=0;entryDx=0;entryDy=0;exitX=0.983;exitY=0.16;exitDx=0;exitDy=0;exitPerimeter=0;" edge="1" parent="1" source="mnoYVhQ4aOoopWuf_P9z-1">
          <mxGeometry x="-1" y="3" relative="1" as="geometry">
            <mxPoint x="480" y="30" as="sourcePoint" />
            <mxPoint x="710" y="150" as="targetPoint" />
          </mxGeometry>
        </mxCell>
        <mxCell id="mnoYVhQ4aOoopWuf_P9z-22" value="&lt;b&gt;ListaUsuarios&lt;/b&gt;" style="text;html=1;align=center;verticalAlign=middle;resizable=0;points=[];autosize=1;strokeColor=none;fillColor=none;" vertex="1" parent="1">
          <mxGeometry x="4" y="124" width="100" height="30" as="geometry" />
        </mxCell>
        <mxCell id="mnoYVhQ4aOoopWuf_P9z-23" value="&lt;b&gt;ListaClases&lt;/b&gt;" style="text;html=1;align=center;verticalAlign=middle;resizable=0;points=[];autosize=1;strokeColor=none;fillColor=none;" vertex="1" parent="1">
          <mxGeometry x="208" y="125" width="90" height="30" as="geometry" />
        </mxCell>
        <mxCell id="mnoYVhQ4aOoopWuf_P9z-24" value="&lt;b&gt;ListaReservas&lt;/b&gt;" style="text;html=1;align=center;verticalAlign=middle;resizable=0;points=[];autosize=1;strokeColor=none;fillColor=none;" vertex="1" parent="1">
          <mxGeometry x="398" y="125" width="100" height="30" as="geometry" />
        </mxCell>
        <mxCell id="mnoYVhQ4aOoopWuf_P9z-25" value="&lt;b&gt;ListaEntrenamientos&lt;/b&gt;" style="text;html=1;align=center;verticalAlign=middle;resizable=0;points=[];autosize=1;strokeColor=none;fillColor=none;" vertex="1" parent="1">
          <mxGeometry x="570" y="126" width="140" height="30" as="geometry" />
        </mxCell>
        <mxCell id="mnoYVhQ4aOoopWuf_P9z-26" value="0...*" style="text;html=1;align=center;verticalAlign=middle;resizable=0;points=[];autosize=1;strokeColor=none;fillColor=none;" vertex="1" parent="1">
          <mxGeometry x="729" y="127" width="40" height="30" as="geometry" />
        </mxCell>
        <mxCell id="mnoYVhQ4aOoopWuf_P9z-27" value="0...*" style="text;html=1;align=center;verticalAlign=middle;resizable=0;points=[];autosize=1;strokeColor=none;fillColor=none;" vertex="1" parent="1">
          <mxGeometry x="516" y="128" width="40" height="30" as="geometry" />
        </mxCell>
        <mxCell id="mnoYVhQ4aOoopWuf_P9z-28" value="0...*" style="text;html=1;align=center;verticalAlign=middle;resizable=0;points=[];autosize=1;strokeColor=none;fillColor=none;" vertex="1" parent="1">
          <mxGeometry x="325" y="128" width="40" height="30" as="geometry" />
        </mxCell>
        <mxCell id="mnoYVhQ4aOoopWuf_P9z-29" value="0...*" style="text;html=1;align=center;verticalAlign=middle;resizable=0;points=[];autosize=1;strokeColor=none;fillColor=none;" vertex="1" parent="1">
          <mxGeometry x="125" y="128" width="40" height="30" as="geometry" />
        </mxCell>
        <mxCell id="mnoYVhQ4aOoopWuf_P9z-34" value="GeneradorReportes" style="swimlane;fontStyle=0;childLayout=stackLayout;horizontal=1;startSize=26;fillColor=none;horizontalStack=0;resizeParent=1;resizeParentMax=0;resizeLast=0;collapsible=1;marginBottom=0;whiteSpace=wrap;html=1;" vertex="1" parent="1">
          <mxGeometry x="20" y="481" width="170" height="90" as="geometry" />
        </mxCell>
        <mxCell id="mnoYVhQ4aOoopWuf_P9z-35" value="+clasePopular()&lt;div&gt;+topTresUsuariorMasActivos()&lt;/div&gt;&lt;div&gt;+ejercicioMasPracticado()&lt;/div&gt;&lt;div&gt;&lt;br&gt;&lt;/div&gt;" style="text;strokeColor=none;fillColor=none;align=left;verticalAlign=top;spacingLeft=4;spacingRight=4;overflow=hidden;rotatable=0;points=[[0,0.5],[1,0.5]];portConstraint=eastwest;whiteSpace=wrap;html=1;" vertex="1" parent="mnoYVhQ4aOoopWuf_P9z-34">
          <mxGeometry y="26" width="170" height="64" as="geometry" />
        </mxCell>
        <mxCell id="mnoYVhQ4aOoopWuf_P9z-38" value="Use" style="endArrow=open;endSize=12;dashed=1;html=1;rounded=0;entryX=0.477;entryY=1.154;entryDx=0;entryDy=0;entryPerimeter=0;" edge="1" parent="1" target="mnoYVhQ4aOoopWuf_P9z-9">
          <mxGeometry width="160" relative="1" as="geometry">
            <mxPoint x="190" y="530" as="sourcePoint" />
            <mxPoint x="350" y="525.5" as="targetPoint" />
          </mxGeometry>
        </mxCell>
        <mxCell id="mnoYVhQ4aOoopWuf_P9z-39" value="Use" style="endArrow=open;endSize=12;dashed=1;html=1;rounded=0;entryX=0.481;entryY=0.846;entryDx=0;entryDy=0;entryPerimeter=0;exitX=0.5;exitY=0;exitDx=0;exitDy=0;" edge="1" parent="1" source="mnoYVhQ4aOoopWuf_P9z-34" target="mnoYVhQ4aOoopWuf_P9z-5">
          <mxGeometry width="160" relative="1" as="geometry">
            <mxPoint x="20" y="400" as="sourcePoint" />
            <mxPoint x="50" y="467" as="targetPoint" />
          </mxGeometry>
        </mxCell>
        <mxCell id="mnoYVhQ4aOoopWuf_P9z-40" value="Use" style="endArrow=open;endSize=12;dashed=1;html=1;rounded=0;exitX=1.01;exitY=0.286;exitDx=0;exitDy=0;exitPerimeter=0;entryX=0.479;entryY=0.91;entryDx=0;entryDy=0;entryPerimeter=0;" edge="1" parent="1" source="mnoYVhQ4aOoopWuf_P9z-35" target="mnoYVhQ4aOoopWuf_P9z-17">
          <mxGeometry width="160" relative="1" as="geometry">
            <mxPoint x="630" y="370" as="sourcePoint" />
            <mxPoint x="370" y="490" as="targetPoint" />
          </mxGeometry>
        </mxCell>
        <mxCell id="mnoYVhQ4aOoopWuf_P9z-41" value="Usuario" style="swimlane;fontStyle=1;align=center;verticalAlign=top;childLayout=stackLayout;horizontal=1;startSize=26;horizontalStack=0;resizeParent=1;resizeParentMax=0;resizeLast=0;collapsible=1;marginBottom=0;whiteSpace=wrap;html=1;" vertex="1" parent="1">
          <mxGeometry x="20" y="652" width="160" height="94" as="geometry" />
        </mxCell>
        <mxCell id="mnoYVhQ4aOoopWuf_P9z-42" value="- nombre: String&lt;div&gt;- cedula: String&lt;/div&gt;" style="text;strokeColor=none;fillColor=none;align=left;verticalAlign=top;spacingLeft=4;spacingRight=4;overflow=hidden;rotatable=0;points=[[0,0.5],[1,0.5]];portConstraint=eastwest;whiteSpace=wrap;html=1;" vertex="1" parent="mnoYVhQ4aOoopWuf_P9z-41">
          <mxGeometry y="26" width="160" height="34" as="geometry" />
        </mxCell>
        <mxCell id="mnoYVhQ4aOoopWuf_P9z-43" value="" style="line;strokeWidth=1;fillColor=none;align=left;verticalAlign=middle;spacingTop=-1;spacingLeft=3;spacingRight=3;rotatable=0;labelPosition=right;points=[];portConstraint=eastwest;strokeColor=inherit;" vertex="1" parent="mnoYVhQ4aOoopWuf_P9z-41">
          <mxGeometry y="60" width="160" height="8" as="geometry" />
        </mxCell>
        <mxCell id="mnoYVhQ4aOoopWuf_P9z-44" value="+ getters &amp;amp; setters" style="text;strokeColor=none;fillColor=none;align=left;verticalAlign=top;spacingLeft=4;spacingRight=4;overflow=hidden;rotatable=0;points=[[0,0.5],[1,0.5]];portConstraint=eastwest;whiteSpace=wrap;html=1;" vertex="1" parent="mnoYVhQ4aOoopWuf_P9z-41">
          <mxGeometry y="68" width="160" height="26" as="geometry" />
        </mxCell>
        <mxCell id="mnoYVhQ4aOoopWuf_P9z-45" value="Cliente" style="swimlane;fontStyle=1;align=center;verticalAlign=top;childLayout=stackLayout;horizontal=1;startSize=26;horizontalStack=0;resizeParent=1;resizeParentMax=0;resizeLast=0;collapsible=1;marginBottom=0;whiteSpace=wrap;html=1;" vertex="1" parent="1">
          <mxGeometry x="250" y="566" width="160" height="144" as="geometry" />
        </mxCell>
        <mxCell id="mnoYVhQ4aOoopWuf_P9z-46" value="-direccion: String&lt;div&gt;-telefono: String&lt;/div&gt;&lt;div&gt;-correo: String&lt;/div&gt;&lt;div&gt;-contrasena: String&lt;/div&gt;&lt;div&gt;&lt;br&gt;&lt;/div&gt;" style="text;strokeColor=none;fillColor=none;align=left;verticalAlign=top;spacingLeft=4;spacingRight=4;overflow=hidden;rotatable=0;points=[[0,0.5],[1,0.5]];portConstraint=eastwest;whiteSpace=wrap;html=1;" vertex="1" parent="mnoYVhQ4aOoopWuf_P9z-45">
          <mxGeometry y="26" width="160" height="84" as="geometry" />
        </mxCell>
        <mxCell id="mnoYVhQ4aOoopWuf_P9z-47" value="" style="line;strokeWidth=1;fillColor=none;align=left;verticalAlign=middle;spacingTop=-1;spacingLeft=3;spacingRight=3;rotatable=0;labelPosition=right;points=[];portConstraint=eastwest;strokeColor=inherit;" vertex="1" parent="mnoYVhQ4aOoopWuf_P9z-45">
          <mxGeometry y="110" width="160" height="8" as="geometry" />
        </mxCell>
        <mxCell id="mnoYVhQ4aOoopWuf_P9z-48" value="+ actualizarCliente()" style="text;strokeColor=none;fillColor=none;align=left;verticalAlign=top;spacingLeft=4;spacingRight=4;overflow=hidden;rotatable=0;points=[[0,0.5],[1,0.5]];portConstraint=eastwest;whiteSpace=wrap;html=1;" vertex="1" parent="mnoYVhQ4aOoopWuf_P9z-45">
          <mxGeometry y="118" width="160" height="26" as="geometry" />
        </mxCell>
        <mxCell id="mnoYVhQ4aOoopWuf_P9z-49" value="Instructor" style="swimlane;fontStyle=1;align=center;verticalAlign=top;childLayout=stackLayout;horizontal=1;startSize=26;horizontalStack=0;resizeParent=1;resizeParentMax=0;resizeLast=0;collapsible=1;marginBottom=0;whiteSpace=wrap;html=1;" vertex="1" parent="1">
          <mxGeometry x="250" y="746" width="160" height="68" as="geometry" />
        </mxCell>
        <mxCell id="mnoYVhQ4aOoopWuf_P9z-50" value="-especialidad: ESPECIALIDAD" style="text;strokeColor=none;fillColor=none;align=left;verticalAlign=top;spacingLeft=4;spacingRight=4;overflow=hidden;rotatable=0;points=[[0,0.5],[1,0.5]];portConstraint=eastwest;whiteSpace=wrap;html=1;" vertex="1" parent="mnoYVhQ4aOoopWuf_P9z-49">
          <mxGeometry y="26" width="160" height="34" as="geometry" />
        </mxCell>
        <mxCell id="mnoYVhQ4aOoopWuf_P9z-51" value="" style="line;strokeWidth=1;fillColor=none;align=left;verticalAlign=middle;spacingTop=-1;spacingLeft=3;spacingRight=3;rotatable=0;labelPosition=right;points=[];portConstraint=eastwest;strokeColor=inherit;" vertex="1" parent="mnoYVhQ4aOoopWuf_P9z-49">
          <mxGeometry y="60" width="160" height="8" as="geometry" />
        </mxCell>
        <mxCell id="mnoYVhQ4aOoopWuf_P9z-53" value="Extends" style="endArrow=block;endSize=16;endFill=0;html=1;rounded=0;entryX=1;entryY=0.5;entryDx=0;entryDy=0;" edge="1" parent="1" target="mnoYVhQ4aOoopWuf_P9z-42">
          <mxGeometry width="160" relative="1" as="geometry">
            <mxPoint x="250" y="631" as="sourcePoint" />
            <mxPoint x="410" y="631" as="targetPoint" />
          </mxGeometry>
        </mxCell>
        <mxCell id="mnoYVhQ4aOoopWuf_P9z-54" value="Extends" style="endArrow=block;endSize=16;endFill=0;html=1;rounded=0;entryX=0.994;entryY=0.765;entryDx=0;entryDy=0;entryPerimeter=0;exitX=0;exitY=0.5;exitDx=0;exitDy=0;" edge="1" parent="1" source="mnoYVhQ4aOoopWuf_P9z-50" target="mnoYVhQ4aOoopWuf_P9z-42">
          <mxGeometry width="160" relative="1" as="geometry">
            <mxPoint x="260" y="641" as="sourcePoint" />
            <mxPoint x="190" y="704" as="targetPoint" />
          </mxGeometry>
        </mxCell>
        <mxCell id="mnoYVhQ4aOoopWuf_P9z-55" value="Clase" style="swimlane;fontStyle=1;align=center;verticalAlign=top;childLayout=stackLayout;horizontal=1;startSize=26;horizontalStack=0;resizeParent=1;resizeParentMax=0;resizeLast=0;collapsible=1;marginBottom=0;whiteSpace=wrap;html=1;" vertex="1" parent="1">
          <mxGeometry x="490" y="468" width="160" height="234" as="geometry" />
        </mxCell>
        <mxCell id="mnoYVhQ4aOoopWuf_P9z-56" value="- CAPACIDADMAXIMA: final int&lt;div&gt;- id: String&lt;/div&gt;&lt;div&gt;- nombre:String&lt;/div&gt;&lt;div&gt;- horario: ArrayList &amp;lt;Sesion&amp;gt;&lt;/div&gt;&lt;div&gt;- capacidadPlazas: int&lt;/div&gt;&lt;div&gt;-fechaInicio: localDate&lt;/div&gt;&lt;div&gt;- disponible: boolean&lt;/div&gt;&lt;div&gt;- tipoClase: TIPOCLASE&lt;/div&gt;&lt;div&gt;- instructor: instructor&lt;/div&gt;" style="text;strokeColor=none;fillColor=none;align=left;verticalAlign=top;spacingLeft=4;spacingRight=4;overflow=hidden;rotatable=0;points=[[0,0.5],[1,0.5]];portConstraint=eastwest;whiteSpace=wrap;html=1;" vertex="1" parent="mnoYVhQ4aOoopWuf_P9z-55">
          <mxGeometry y="26" width="160" height="174" as="geometry" />
        </mxCell>
        <mxCell id="mnoYVhQ4aOoopWuf_P9z-57" value="" style="line;strokeWidth=1;fillColor=none;align=left;verticalAlign=middle;spacingTop=-1;spacingLeft=3;spacingRight=3;rotatable=0;labelPosition=right;points=[];portConstraint=eastwest;strokeColor=inherit;" vertex="1" parent="mnoYVhQ4aOoopWuf_P9z-55">
          <mxGeometry y="200" width="160" height="8" as="geometry" />
        </mxCell>
        <mxCell id="mnoYVhQ4aOoopWuf_P9z-58" value="+ busquedaClase()" style="text;strokeColor=none;fillColor=none;align=left;verticalAlign=top;spacingLeft=4;spacingRight=4;overflow=hidden;rotatable=0;points=[[0,0.5],[1,0.5]];portConstraint=eastwest;whiteSpace=wrap;html=1;" vertex="1" parent="mnoYVhQ4aOoopWuf_P9z-55">
          <mxGeometry y="208" width="160" height="26" as="geometry" />
        </mxCell>
        <mxCell id="mnoYVhQ4aOoopWuf_P9z-60" value="RegistroEntrenamiento" style="swimlane;fontStyle=1;align=center;verticalAlign=top;childLayout=stackLayout;horizontal=1;startSize=26;horizontalStack=0;resizeParent=1;resizeParentMax=0;resizeLast=0;collapsible=1;marginBottom=0;whiteSpace=wrap;html=1;" vertex="1" parent="1">
          <mxGeometry x="490" y="780" width="160" height="174" as="geometry" />
        </mxCell>
        <mxCell id="mnoYVhQ4aOoopWuf_P9z-61" value="- cliente: Cliente&lt;div&gt;- tipoEntrenamiento: TIPOENTRENAMIENTO&lt;/div&gt;&lt;div&gt;- duracion: int&lt;/div&gt;&lt;div&gt;- caloriasQuemadas: double&lt;/div&gt;&lt;div&gt;- fechaEntrenamiento: localDate&lt;/div&gt;" style="text;strokeColor=none;fillColor=none;align=left;verticalAlign=top;spacingLeft=4;spacingRight=4;overflow=hidden;rotatable=0;points=[[0,0.5],[1,0.5]];portConstraint=eastwest;whiteSpace=wrap;html=1;" vertex="1" parent="mnoYVhQ4aOoopWuf_P9z-60">
          <mxGeometry y="26" width="160" height="114" as="geometry" />
        </mxCell>
        <mxCell id="mnoYVhQ4aOoopWuf_P9z-62" value="" style="line;strokeWidth=1;fillColor=none;align=left;verticalAlign=middle;spacingTop=-1;spacingLeft=3;spacingRight=3;rotatable=0;labelPosition=right;points=[];portConstraint=eastwest;strokeColor=inherit;" vertex="1" parent="mnoYVhQ4aOoopWuf_P9z-60">
          <mxGeometry y="140" width="160" height="8" as="geometry" />
        </mxCell>
        <mxCell id="mnoYVhQ4aOoopWuf_P9z-63" value="+ historialEntrenamientos" style="text;strokeColor=none;fillColor=none;align=left;verticalAlign=top;spacingLeft=4;spacingRight=4;overflow=hidden;rotatable=0;points=[[0,0.5],[1,0.5]];portConstraint=eastwest;whiteSpace=wrap;html=1;" vertex="1" parent="mnoYVhQ4aOoopWuf_P9z-60">
          <mxGeometry y="148" width="160" height="26" as="geometry" />
        </mxCell>
        <mxCell id="mnoYVhQ4aOoopWuf_P9z-64" value="TipoClase" style="swimlane;fontStyle=0;childLayout=stackLayout;horizontal=1;startSize=26;fillColor=none;horizontalStack=0;resizeParent=1;resizeParentMax=0;resizeLast=0;collapsible=1;marginBottom=0;whiteSpace=wrap;html=1;" vertex="1" parent="1">
          <mxGeometry x="730" y="536" width="140" height="80" as="geometry" />
        </mxCell>
        <mxCell id="mnoYVhQ4aOoopWuf_P9z-65" value="ZUMBA, CROSSFIT, PILATES, HIIT, YOGA, SPINNIG" style="text;strokeColor=none;fillColor=none;align=left;verticalAlign=top;spacingLeft=4;spacingRight=4;overflow=hidden;rotatable=0;points=[[0,0.5],[1,0.5]];portConstraint=eastwest;whiteSpace=wrap;html=1;" vertex="1" parent="mnoYVhQ4aOoopWuf_P9z-64">
          <mxGeometry y="26" width="140" height="54" as="geometry" />
        </mxCell>
        <mxCell id="mnoYVhQ4aOoopWuf_P9z-68" value="TipoClase" style="swimlane;fontStyle=0;childLayout=stackLayout;horizontal=1;startSize=26;fillColor=none;horizontalStack=0;resizeParent=1;resizeParentMax=0;resizeLast=0;collapsible=1;marginBottom=0;whiteSpace=wrap;html=1;" vertex="1" parent="1">
          <mxGeometry x="729" y="806" width="140" height="120" as="geometry" />
        </mxCell>
        <mxCell id="mnoYVhQ4aOoopWuf_P9z-69" value="RESISTENCIA, VELOCIDAD, FLEXIBILIDAD, CARDIO, PESAS, YOGA, CROSSFIT, PILATES, FUERZA" style="text;strokeColor=none;fillColor=none;align=left;verticalAlign=top;spacingLeft=4;spacingRight=4;overflow=hidden;rotatable=0;points=[[0,0.5],[1,0.5]];portConstraint=eastwest;whiteSpace=wrap;html=1;" vertex="1" parent="mnoYVhQ4aOoopWuf_P9z-68">
          <mxGeometry y="26" width="140" height="94" as="geometry" />
        </mxCell>
        <mxCell id="mnoYVhQ4aOoopWuf_P9z-73" value="" style="endArrow=none;html=1;edgeStyle=orthogonalEdgeStyle;rounded=0;exitX=1;exitY=0.5;exitDx=0;exitDy=0;entryX=0;entryY=0.352;entryDx=0;entryDy=0;entryPerimeter=0;" edge="1" parent="1" source="mnoYVhQ4aOoopWuf_P9z-56" target="mnoYVhQ4aOoopWuf_P9z-65">
          <mxGeometry relative="1" as="geometry">
            <mxPoint x="660" y="625" as="sourcePoint" />
            <mxPoint x="750" y="625" as="targetPoint" />
          </mxGeometry>
        </mxCell>
        <mxCell id="mnoYVhQ4aOoopWuf_P9z-76" value="" style="endArrow=none;html=1;edgeStyle=orthogonalEdgeStyle;rounded=0;exitX=1;exitY=0.5;exitDx=0;exitDy=0;entryX=0;entryY=0.352;entryDx=0;entryDy=0;entryPerimeter=0;" edge="1" parent="1">
          <mxGeometry relative="1" as="geometry">
            <mxPoint x="650" y="868" as="sourcePoint" />
            <mxPoint x="730" y="868" as="targetPoint" />
          </mxGeometry>
        </mxCell>
        <mxCell id="mnoYVhQ4aOoopWuf_P9z-77" value="Usuario" style="swimlane;fontStyle=1;align=center;verticalAlign=top;childLayout=stackLayout;horizontal=1;startSize=26;horizontalStack=0;resizeParent=1;resizeParentMax=0;resizeLast=0;collapsible=1;marginBottom=0;whiteSpace=wrap;html=1;" vertex="1" parent="1">
          <mxGeometry x="30" y="1050" width="160" height="94" as="geometry" />
        </mxCell>
        <mxCell id="mnoYVhQ4aOoopWuf_P9z-78" value="- nombre: String&lt;div&gt;- cedula: String&lt;/div&gt;" style="text;strokeColor=none;fillColor=none;align=left;verticalAlign=top;spacingLeft=4;spacingRight=4;overflow=hidden;rotatable=0;points=[[0,0.5],[1,0.5]];portConstraint=eastwest;whiteSpace=wrap;html=1;" vertex="1" parent="mnoYVhQ4aOoopWuf_P9z-77">
          <mxGeometry y="26" width="160" height="34" as="geometry" />
        </mxCell>
        <mxCell id="mnoYVhQ4aOoopWuf_P9z-79" value="" style="line;strokeWidth=1;fillColor=none;align=left;verticalAlign=middle;spacingTop=-1;spacingLeft=3;spacingRight=3;rotatable=0;labelPosition=right;points=[];portConstraint=eastwest;strokeColor=inherit;" vertex="1" parent="mnoYVhQ4aOoopWuf_P9z-77">
          <mxGeometry y="60" width="160" height="8" as="geometry" />
        </mxCell>
        <mxCell id="mnoYVhQ4aOoopWuf_P9z-80" value="+ getters &amp;amp; setters" style="text;strokeColor=none;fillColor=none;align=left;verticalAlign=top;spacingLeft=4;spacingRight=4;overflow=hidden;rotatable=0;points=[[0,0.5],[1,0.5]];portConstraint=eastwest;whiteSpace=wrap;html=1;" vertex="1" parent="mnoYVhQ4aOoopWuf_P9z-77">
          <mxGeometry y="68" width="160" height="26" as="geometry" />
        </mxCell>
        <mxCell id="mnoYVhQ4aOoopWuf_P9z-81" value="Clase" style="swimlane;fontStyle=1;align=center;verticalAlign=top;childLayout=stackLayout;horizontal=1;startSize=26;horizontalStack=0;resizeParent=1;resizeParentMax=0;resizeLast=0;collapsible=1;marginBottom=0;whiteSpace=wrap;html=1;" vertex="1" parent="1">
          <mxGeometry x="270" y="1030" width="160" height="234" as="geometry" />
        </mxCell>
        <mxCell id="mnoYVhQ4aOoopWuf_P9z-82" value="- CAPACIDADMAXIMA: final int&lt;div&gt;- id: String&lt;/div&gt;&lt;div&gt;- nombre:String&lt;/div&gt;&lt;div&gt;- horario: ArrayList &amp;lt;Sesion&amp;gt;&lt;/div&gt;&lt;div&gt;- capacidadPlazas: int&lt;/div&gt;&lt;div&gt;-fechaInicio: localDate&lt;/div&gt;&lt;div&gt;- disponible: boolean&lt;/div&gt;&lt;div&gt;- tipoClase: TIPOCLASE&lt;/div&gt;&lt;div&gt;- instructor: instructor&lt;/div&gt;" style="text;strokeColor=none;fillColor=none;align=left;verticalAlign=top;spacingLeft=4;spacingRight=4;overflow=hidden;rotatable=0;points=[[0,0.5],[1,0.5]];portConstraint=eastwest;whiteSpace=wrap;html=1;" vertex="1" parent="mnoYVhQ4aOoopWuf_P9z-81">
          <mxGeometry y="26" width="160" height="174" as="geometry" />
        </mxCell>
        <mxCell id="mnoYVhQ4aOoopWuf_P9z-83" value="" style="line;strokeWidth=1;fillColor=none;align=left;verticalAlign=middle;spacingTop=-1;spacingLeft=3;spacingRight=3;rotatable=0;labelPosition=right;points=[];portConstraint=eastwest;strokeColor=inherit;" vertex="1" parent="mnoYVhQ4aOoopWuf_P9z-81">
          <mxGeometry y="200" width="160" height="8" as="geometry" />
        </mxCell>
        <mxCell id="mnoYVhQ4aOoopWuf_P9z-84" value="+ busquedaClase()" style="text;strokeColor=none;fillColor=none;align=left;verticalAlign=top;spacingLeft=4;spacingRight=4;overflow=hidden;rotatable=0;points=[[0,0.5],[1,0.5]];portConstraint=eastwest;whiteSpace=wrap;html=1;" vertex="1" parent="mnoYVhQ4aOoopWuf_P9z-81">
          <mxGeometry y="208" width="160" height="26" as="geometry" />
        </mxCell>
        <mxCell id="mnoYVhQ4aOoopWuf_P9z-85" value="ReservaClase" style="swimlane;fontStyle=1;align=center;verticalAlign=top;childLayout=stackLayout;horizontal=1;startSize=26;horizontalStack=0;resizeParent=1;resizeParentMax=0;resizeLast=0;collapsible=1;marginBottom=0;whiteSpace=wrap;html=1;" vertex="1" parent="1">
          <mxGeometry x="265" y="1400" width="160" height="140" as="geometry" />
        </mxCell>
        <mxCell id="mnoYVhQ4aOoopWuf_P9z-86" value="- clase: Clase&lt;div&gt;- cliente: Cliente&lt;/div&gt;&lt;div&gt;- fechaReserva: localDate&lt;/div&gt;&lt;div&gt;&lt;br&gt;&lt;/div&gt;" style="text;strokeColor=none;fillColor=none;align=left;verticalAlign=top;spacingLeft=4;spacingRight=4;overflow=hidden;rotatable=0;points=[[0,0.5],[1,0.5]];portConstraint=eastwest;whiteSpace=wrap;html=1;" vertex="1" parent="mnoYVhQ4aOoopWuf_P9z-85">
          <mxGeometry y="26" width="160" height="64" as="geometry" />
        </mxCell>
        <mxCell id="mnoYVhQ4aOoopWuf_P9z-87" value="" style="line;strokeWidth=1;fillColor=none;align=left;verticalAlign=middle;spacingTop=-1;spacingLeft=3;spacingRight=3;rotatable=0;labelPosition=right;points=[];portConstraint=eastwest;strokeColor=inherit;" vertex="1" parent="mnoYVhQ4aOoopWuf_P9z-85">
          <mxGeometry y="90" width="160" height="8" as="geometry" />
        </mxCell>
        <mxCell id="mnoYVhQ4aOoopWuf_P9z-88" value="+ reservarClase()&lt;div&gt;+ cancelarReserva()&lt;/div&gt;" style="text;strokeColor=none;fillColor=none;align=left;verticalAlign=top;spacingLeft=4;spacingRight=4;overflow=hidden;rotatable=0;points=[[0,0.5],[1,0.5]];portConstraint=eastwest;whiteSpace=wrap;html=1;" vertex="1" parent="mnoYVhQ4aOoopWuf_P9z-85">
          <mxGeometry y="98" width="160" height="42" as="geometry" />
        </mxCell>
        <mxCell id="mnoYVhQ4aOoopWuf_P9z-89" value="RegistroEntrenamiento" style="swimlane;fontStyle=1;align=center;verticalAlign=top;childLayout=stackLayout;horizontal=1;startSize=26;horizontalStack=0;resizeParent=1;resizeParentMax=0;resizeLast=0;collapsible=1;marginBottom=0;whiteSpace=wrap;html=1;" vertex="1" parent="1">
          <mxGeometry x="48" y="1390" width="160" height="184" as="geometry" />
        </mxCell>
        <mxCell id="mnoYVhQ4aOoopWuf_P9z-90" value="- cliente: Cliente&lt;div&gt;- tipoEntrenamiento: TIPOENTRENAMIENTO&lt;/div&gt;&lt;div&gt;- duracion: int&lt;/div&gt;&lt;div&gt;- caloriasQuemadas: double&lt;/div&gt;&lt;div&gt;- fechaEntrenamiento: localDate&lt;/div&gt;" style="text;strokeColor=none;fillColor=none;align=left;verticalAlign=top;spacingLeft=4;spacingRight=4;overflow=hidden;rotatable=0;points=[[0,0.5],[1,0.5]];portConstraint=eastwest;whiteSpace=wrap;html=1;" vertex="1" parent="mnoYVhQ4aOoopWuf_P9z-89">
          <mxGeometry y="26" width="160" height="124" as="geometry" />
        </mxCell>
        <mxCell id="mnoYVhQ4aOoopWuf_P9z-91" value="" style="line;strokeWidth=1;fillColor=none;align=left;verticalAlign=middle;spacingTop=-1;spacingLeft=3;spacingRight=3;rotatable=0;labelPosition=right;points=[];portConstraint=eastwest;strokeColor=inherit;" vertex="1" parent="mnoYVhQ4aOoopWuf_P9z-89">
          <mxGeometry y="150" width="160" height="8" as="geometry" />
        </mxCell>
        <mxCell id="mnoYVhQ4aOoopWuf_P9z-92" value="+ historialEntrenamientos" style="text;strokeColor=none;fillColor=none;align=left;verticalAlign=top;spacingLeft=4;spacingRight=4;overflow=hidden;rotatable=0;points=[[0,0.5],[1,0.5]];portConstraint=eastwest;whiteSpace=wrap;html=1;" vertex="1" parent="mnoYVhQ4aOoopWuf_P9z-89">
          <mxGeometry y="158" width="160" height="26" as="geometry" />
        </mxCell>
        <mxCell id="mnoYVhQ4aOoopWuf_P9z-93" value="" style="endArrow=diamondThin;endFill=0;endSize=24;html=1;rounded=0;exitX=0.55;exitY=1.154;exitDx=0;exitDy=0;exitPerimeter=0;entryX=0.456;entryY=-0.021;entryDx=0;entryDy=0;entryPerimeter=0;" edge="1" parent="1" source="mnoYVhQ4aOoopWuf_P9z-80" target="mnoYVhQ4aOoopWuf_P9z-85">
          <mxGeometry width="160" relative="1" as="geometry">
            <mxPoint x="230" y="1130" as="sourcePoint" />
            <mxPoint x="350" y="1400" as="targetPoint" />
          </mxGeometry>
        </mxCell>
        <mxCell id="mnoYVhQ4aOoopWuf_P9z-94" value="1*" style="text;html=1;align=center;verticalAlign=middle;resizable=0;points=[];autosize=1;strokeColor=none;fillColor=none;" vertex="1" parent="1">
          <mxGeometry x="355" y="1378" width="30" height="30" as="geometry" />
        </mxCell>
        <mxCell id="mnoYVhQ4aOoopWuf_P9z-95" value="" style="endArrow=diamondThin;endFill=0;endSize=24;html=1;rounded=0;exitX=0.419;exitY=1.154;exitDx=0;exitDy=0;exitPerimeter=0;" edge="1" parent="1" source="mnoYVhQ4aOoopWuf_P9z-80" target="mnoYVhQ4aOoopWuf_P9z-89">
          <mxGeometry width="160" relative="1" as="geometry">
            <mxPoint x="111" y="1154" as="sourcePoint" />
            <mxPoint x="348" y="1407" as="targetPoint" />
          </mxGeometry>
        </mxCell>
        <mxCell id="mnoYVhQ4aOoopWuf_P9z-96" value="1*" style="text;html=1;align=center;verticalAlign=middle;resizable=0;points=[];autosize=1;strokeColor=none;fillColor=none;" vertex="1" parent="1">
          <mxGeometry x="135" y="1360" width="30" height="30" as="geometry" />
        </mxCell>
        <mxCell id="mnoYVhQ4aOoopWuf_P9z-97" value="" style="endArrow=diamondThin;endFill=0;endSize=24;html=1;rounded=0;exitX=1.013;exitY=0.765;exitDx=0;exitDy=0;exitPerimeter=0;entryX=-0.012;entryY=0.621;entryDx=0;entryDy=0;entryPerimeter=0;" edge="1" parent="1" source="mnoYVhQ4aOoopWuf_P9z-78" target="mnoYVhQ4aOoopWuf_P9z-82">
          <mxGeometry width="160" relative="1" as="geometry">
            <mxPoint x="128" y="1158" as="sourcePoint" />
            <mxPoint x="348" y="1407" as="targetPoint" />
          </mxGeometry>
        </mxCell>
        <mxCell id="mnoYVhQ4aOoopWuf_P9z-98" value="1*" style="text;html=1;align=center;verticalAlign=middle;resizable=0;points=[];autosize=1;strokeColor=none;fillColor=none;" vertex="1" parent="1">
          <mxGeometry x="240" y="1110" width="30" height="30" as="geometry" />
        </mxCell>
        <mxCell id="mnoYVhQ4aOoopWuf_P9z-99" value="Sesion" style="swimlane;fontStyle=0;childLayout=stackLayout;horizontal=1;startSize=26;fillColor=none;horizontalStack=0;resizeParent=1;resizeParentMax=0;resizeLast=0;collapsible=1;marginBottom=0;whiteSpace=wrap;html=1;" vertex="1" parent="1">
          <mxGeometry x="511" y="1085" width="140" height="80" as="geometry" />
        </mxCell>
        <mxCell id="mnoYVhQ4aOoopWuf_P9z-101" value="- diaSemana: day&lt;div&gt;- horaInicio: LocalTime;&lt;/div&gt;&lt;div&gt;- horaFin: LocalTime;&lt;/div&gt;" style="text;strokeColor=none;fillColor=none;align=left;verticalAlign=top;spacingLeft=4;spacingRight=4;overflow=hidden;rotatable=0;points=[[0,0.5],[1,0.5]];portConstraint=eastwest;whiteSpace=wrap;html=1;" vertex="1" parent="mnoYVhQ4aOoopWuf_P9z-99">
          <mxGeometry y="26" width="140" height="54" as="geometry" />
        </mxCell>
        <mxCell id="mnoYVhQ4aOoopWuf_P9z-104" value="" style="endArrow=none;html=1;edgeStyle=orthogonalEdgeStyle;rounded=0;exitX=1;exitY=0.5;exitDx=0;exitDy=0;entryX=0;entryY=0.352;entryDx=0;entryDy=0;entryPerimeter=0;" edge="1" parent="1">
          <mxGeometry relative="1" as="geometry">
            <mxPoint x="430" y="1126" as="sourcePoint" />
            <mxPoint x="510" y="1126" as="targetPoint" />
          </mxGeometry>
        </mxCell>
      </root>
    </mxGraphModel>
  </diagram>
</mxfile>
